<?xml version="1.0" standalone="no"?><!DOCTYPE svg PUBLIC "-//W3C//DTD SVG 1.1//EN" "http://www.w3.org/Graphics/SVG/1.1/DTD/svg11.dtd"><svg t="1561551645163" class="icon" viewBox="0 0 1024 1024" version="1.1" xmlns="http://www.w3.org/2000/svg" p-id="1212" xmlns:xlink="http://www.w3.org/1999/xlink" width="200" height="200"><defs><style type="text/css"></style></defs><path d="M928.938667 468.114286H134.656c7.143619-79.189333 33.450667-152.185905 73.703619-213.308953L104.594286 151.04a21.942857 21.942857 0 0 1 0-31.012571l31.695238-31.695239a21.942857 21.942857 0 0 1 31.036952 0l97.475048 97.475048C335.481905 115.760762 429.104762 73.142857 531.797333 73.142857c98.986667 0 189.513143 39.619048 259.267048 105.20381l89.990095-90.014477a21.942857 21.942857 0 0 1 31.036953 0l31.695238 31.695239a21.942857 21.942857 0 0 1 0 31.012571l-94.695619 94.695619c43.739429 62.902857 72.338286 139.239619 79.847619 222.378667z m0 87.771428c-20.016762 221.769143-190.171429 394.971429-397.141334 394.971429-206.945524 0-377.124571-173.202286-397.141333-394.971429h794.282667z m-530.188191-175.542857a44.129524 44.129524 0 0 0 44.373334-43.885714c0-24.234667-19.870476-43.885714-44.373334-43.885714a44.129524 44.129524 0 0 0-44.324571 43.885714c0 24.234667 19.846095 43.885714 44.324571 43.885714z m266.093714 0a44.129524 44.129524 0 0 0 44.348953-43.885714c0-24.234667-19.870476-43.885714-44.373333-43.885714a44.129524 44.129524 0 0 0-44.324572 43.885714c0 24.234667 19.846095 43.885714 44.348952 43.885714z" fill="#1296db" p-id="1213"></path></svg>